<svg width="22" height="20" viewBox="0 0 22 20" fill="none" xmlns="http://www.w3.org/2000/svg">
<g clip-path="url(#clip0_474_1442)">
<path d="M18.8333 11.2502C18.8335 10.8763 18.7058 10.5168 18.4759 10.221C18.2466 9.92606 17.9282 9.71003 17.5696 9.59478L16.9166 9.38489V10.0708V12.4791V13.0801L17.5075 12.9708C18.2283 12.8374 18.8333 12.2409 18.8333 11.4583V11.2502ZM18.8333 11.2502L18.3333 11.25M18.8333 11.2502V11.25H18.3333M18.3333 11.25C18.3334 10.9914 18.2453 10.7391 18.0811 10.5279C18.0321 10.4648 17.9769 10.4063 17.9166 10.3529V10.0708H17.4166L17.2636 10.5468C17.3177 10.5642 17.3688 10.5859 17.4166 10.6112L18.3333 11.25ZM16.9166 8.36246V8.80156L17.352 8.85827C18.6983 9.03363 19.6666 10.071 19.6666 11.25V11.4581C19.6666 11.4582 19.6666 11.4582 19.6666 11.4583C19.6665 11.7458 19.6032 12.0317 19.4788 12.2998C19.3543 12.568 19.1704 12.8143 18.9353 13.0226C18.7002 13.231 18.4189 13.3968 18.1071 13.5079C17.7953 13.6191 17.4608 13.6728 17.1237 13.6651L16.7717 13.657L16.6455 13.9857C16.0425 15.5562 14.4873 16.6518 12.767 16.9306L12.7273 16.937L12.6892 16.9497C12.548 16.9967 12.3747 17.0148 12.157 17.0158C12.0495 17.0163 11.9396 17.0127 11.8211 17.0086L11.8031 17.0079C11.6931 17.0041 11.5744 17 11.4583 17C11.2116 17 10.9836 16.9105 10.8223 16.7639L10.486 17.1338L10.8223 16.7639C10.6627 16.6187 10.5833 16.4327 10.5833 16.25C10.5833 16.0673 10.6627 15.8812 10.8223 15.736L10.486 15.3661L10.8223 15.736C10.9836 15.5895 11.2116 15.5 11.4583 15.5H12.3749C12.6817 15.5 12.9399 15.6349 13.0941 15.8238L13.3331 16.1164L13.6799 15.9663C15.0099 15.3907 16.0833 14.148 16.0833 12.5V7.49996C16.0833 6.24607 15.5349 5.05439 14.5772 4.18371C13.621 3.31447 12.3335 2.83329 10.9999 2.83329C9.6663 2.83329 8.37884 3.31447 7.42268 4.18371C6.46493 5.05439 5.91658 6.24607 5.91658 7.49996V12.7083C5.91658 12.9462 5.81303 13.1853 5.6104 13.3695C5.40618 13.5552 5.11983 13.6666 4.81242 13.6666C4.14034 13.6666 3.50425 13.4235 3.04217 13.0034C2.58167 12.5848 2.33325 12.0278 2.33325 11.4583V11.25L2.33325 11.2498C2.33309 10.6829 2.5573 10.1268 2.97811 9.68491C3.40006 9.24187 3.9916 8.94438 4.6483 8.85821L5.08325 8.80114V8.36246V7.49996C5.08325 6.10168 5.69384 4.74982 6.79899 3.74514C7.90572 2.73902 9.41615 2.16663 10.9999 2.16663C12.5837 2.16663 14.0941 2.73902 15.2009 3.74514C16.306 4.74982 16.9166 6.10168 16.9166 7.49996V8.36246ZM5.08325 10.0708V9.38489L4.43025 9.59478C4.07167 9.71003 3.75323 9.92606 3.52394 10.221C3.29408 10.5167 3.16644 10.8762 3.16659 11.25C3.16659 11.25 3.16659 11.25 3.16659 11.25C3.16659 11.2501 3.16659 11.2502 3.16659 11.2502L3.16659 11.4583C3.16659 12.2403 3.77098 12.8385 4.49305 12.9709L5.08325 13.0792V12.4791V10.0708Z" stroke="white"/>
</g>
<defs>
<clipPath id="clip0_474_1442">
<rect width="22" height="20" fill="white"/>
</clipPath>
</defs>
</svg>
