<svg width="22" height="22" viewBox="0 0 22 22" fill="none" xmlns="http://www.w3.org/2000/svg">
<path d="M7.04688 11.6875H10.3125V14.9531C10.3125 15.0477 10.3898 15.125 10.4844 15.125H11.5156C11.6102 15.125 11.6875 15.0477 11.6875 14.9531V11.6875H14.9531C15.0477 11.6875 15.125 11.6102 15.125 11.5156V10.4844C15.125 10.3898 15.0477 10.3125 14.9531 10.3125H11.6875V7.04688C11.6875 6.95234 11.6102 6.875 11.5156 6.875H10.4844C10.3898 6.875 10.3125 6.95234 10.3125 7.04688V10.3125H7.04688C6.95234 10.3125 6.875 10.3898 6.875 10.4844V11.5156C6.875 11.6102 6.95234 11.6875 7.04688 11.6875Z" fill="white"/>
<path d="M18.9062 2.40625H3.09375C2.71348 2.40625 2.40625 2.71348 2.40625 3.09375V18.9062C2.40625 19.2865 2.71348 19.5938 3.09375 19.5938H18.9062C19.2865 19.5938 19.5938 19.2865 19.5938 18.9062V3.09375C19.5938 2.71348 19.2865 2.40625 18.9062 2.40625ZM18.0469 18.0469H3.95312V3.95312H18.0469V18.0469Z" fill="white"/>
</svg>
