<svg width="22" height="20" viewBox="0 0 22 20" fill="none" xmlns="http://www.w3.org/2000/svg">
<path d="M10.1096 2.11636C10.6633 1.8367 11.3366 1.8367 11.8904 2.11635L18.7785 5.59523C19.0695 5.7422 19.25 6.02105 19.25 6.32369V13.186C19.25 13.7913 18.889 14.349 18.307 14.6429L11.8904 17.8837C11.3366 18.1634 10.6633 18.1634 10.1096 17.8837L3.69298 14.6429C3.11096 14.349 2.75 13.7913 2.75 13.186V6.32369C2.75 6.02105 2.93048 5.7422 3.2215 5.59523L10.1096 2.11636Z" stroke="#222F3E" stroke-width="2" stroke-linecap="round" stroke-linejoin="round"/>
<path d="M2.75 5.83337L11 10M11 10L19.25 5.83337M11 10V17.9167" stroke="#222F3E" stroke-width="2" stroke-linejoin="round"/>
<path d="M6.875 7.91667L15.125 3.75" stroke="#222F3E" stroke-width="2" stroke-linecap="round" stroke-linejoin="round"/>
<path d="M5.5 10.2734L8.25 11.6667" stroke="#222F3E" stroke-width="2" stroke-linecap="round" stroke-linejoin="round"/>
</svg>
