<svg width="22" height="20" viewBox="0 0 22 20" fill="none" xmlns="http://www.w3.org/2000/svg">
<path d="M11 10H11.0092H11Z" fill="#576574"/>
<path d="M11 10H11.0092" stroke="#576574" stroke-width="2" stroke-linecap="round" stroke-linejoin="round"/>
<path d="M14.6666 5.00008V3.33341C14.6666 2.89139 14.4734 2.46746 14.1296 2.1549C13.7858 1.84234 13.3195 1.66675 12.8333 1.66675H9.16659C8.68036 1.66675 8.21404 1.84234 7.87022 2.1549C7.52641 2.46746 7.33325 2.89139 7.33325 3.33341V5.00008" stroke="#576574" stroke-width="2" stroke-linecap="round" stroke-linejoin="round"/>
<path d="M20.1666 10.8333C17.4466 12.4657 14.2592 13.336 10.9999 13.336C7.74067 13.336 4.55319 12.4657 1.83325 10.8333" stroke="#576574" stroke-width="2" stroke-linecap="round" stroke-linejoin="round"/>
<path d="M18.3333 5H3.66659C2.65406 5 1.83325 5.74619 1.83325 6.66667V15C1.83325 15.9205 2.65406 16.6667 3.66659 16.6667H18.3333C19.3458 16.6667 20.1666 15.9205 20.1666 15V6.66667C20.1666 5.74619 19.3458 5 18.3333 5Z" stroke="#576574" stroke-width="2" stroke-linecap="round" stroke-linejoin="round"/>
</svg>
