<svg width="22" height="20" viewBox="0 0 22 20" fill="none" xmlns="http://www.w3.org/2000/svg">
<g clip-path="url(#clip0_579_968)">
<path d="M15.3258 16.4599L14.7387 12.1899C14.5666 10.9388 13.3968 10 12.01 10H11.0001H9.99019C8.60334 10 7.43349 10.9388 7.26146 12.1899L6.67434 16.4599C6.53756 17.4547 7.39077 18.3333 8.49351 18.3333H11.0001H13.5066C14.6094 18.3333 15.4626 17.4547 15.3258 16.4599Z" stroke="#222F3E" stroke-width="2" stroke-linecap="round" stroke-linejoin="round"/>
<path d="M11 6.66675C12.5188 6.66675 13.75 5.54746 13.75 4.16675C13.75 2.78604 12.5188 1.66675 11 1.66675C9.48122 1.66675 8.25 2.78604 8.25 4.16675C8.25 5.54746 9.48122 6.66675 11 6.66675Z" stroke="#222F3E" stroke-width="2"/>
<path d="M3.66659 9.16659C4.67911 9.16659 5.49992 8.42039 5.49992 7.49992C5.49992 6.57944 4.67911 5.83325 3.66659 5.83325C2.65406 5.83325 1.83325 6.57944 1.83325 7.49992C1.83325 8.42039 2.65406 9.16659 3.66659 9.16659Z" stroke="#222F3E" stroke-width="2"/>
<path d="M18.3333 9.16659C19.3459 9.16659 20.1667 8.42039 20.1667 7.49992C20.1667 6.57944 19.3459 5.83325 18.3333 5.83325C17.3208 5.83325 16.5 6.57944 16.5 7.49992C16.5 8.42039 17.3208 9.16659 18.3333 9.16659Z" stroke="#222F3E" stroke-width="2"/>
<path d="M3.66668 11.6667H3.38641C2.49021 11.6667 1.72536 12.2557 1.57803 13.0594L1.27247 14.7261C1.08623 15.742 1.94797 16.6667 3.08086 16.6667H6.41668" stroke="#222F3E" stroke-width="2" stroke-linecap="round" stroke-linejoin="round"/>
<path d="M18.3333 11.6667H18.6135C19.5097 11.6667 20.2746 12.2557 20.4219 13.0594L20.7275 14.7261C20.9137 15.742 20.0521 16.6667 18.9192 16.6667C17.8543 16.6667 16.5872 16.6667 15.5833 16.6667" stroke="#222F3E" stroke-width="2" stroke-linecap="round" stroke-linejoin="round"/>
</g>
<defs>
<clipPath id="clip0_579_968">
<rect width="22" height="20" fill="white"/>
</clipPath>
</defs>
</svg>
