<svg width="22" height="20" viewBox="0 0 22 20" fill="none" xmlns="http://www.w3.org/2000/svg">
<path d="M2.0625 17.5H19.9375M3.4375 2.5V17.5M13.0625 2.5V17.5M18.5625 6.25V17.5M6.1875 5.625H6.875M6.1875 8.125H6.875M6.1875 10.625H6.875M9.625 5.625H10.3125M9.625 8.125H10.3125M9.625 10.625H10.3125M6.1875 17.5V14.6875C6.1875 14.17 6.6495 13.75 7.21875 13.75H9.28125C9.8505 13.75 10.3125 14.17 10.3125 14.6875V17.5M2.75 2.5H13.75M13.0625 6.25H19.25M15.8125 9.375H15.8198V9.38167H15.8125V9.375ZM15.8125 11.875H15.8198V11.8817H15.8125V11.875ZM15.8125 14.375H15.8198V14.3817H15.8125V14.375Z" stroke="#576574" stroke-width="1.5" stroke-linecap="round" stroke-linejoin="round"/>
</svg>
