<svg width="25" height="24" viewBox="0 0 25 24" fill="none" xmlns="http://www.w3.org/2000/svg">
<g clip-path="url(#clip0_328_652)">
<path d="M9.5 18C9.5 18.7956 9.81607 19.5587 10.3787 20.1213C10.9413 20.6839 11.7044 21 12.5 21C13.2956 21 14.0587 20.6839 14.6213 20.1213C15.1839 19.5587 15.5 18.7956 15.5 18" stroke="#222F3E" stroke-width="1.5" stroke-linecap="round" stroke-linejoin="round"/>
<path d="M5.74988 9.75C5.74988 7.95979 6.46104 6.2429 7.72691 4.97703C8.99278 3.71116 10.7097 3 12.4999 3C14.2901 3 16.007 3.71116 17.2729 4.97703C18.5387 6.2429 19.2499 7.95979 19.2499 9.75C19.2499 13.1081 20.028 15.8063 20.6468 16.875C20.7125 16.9888 20.7471 17.1179 20.7472 17.2493C20.7474 17.3808 20.7129 17.5099 20.6474 17.6239C20.5819 17.7378 20.4876 17.8325 20.374 17.8985C20.2603 17.9645 20.1313 17.9995 19.9999 18H4.99988C4.86861 17.9992 4.73985 17.964 4.62646 17.8978C4.51308 17.8317 4.41904 17.7369 4.35375 17.6231C4.28845 17.5092 4.2542 17.3801 4.2544 17.2489C4.25459 17.1176 4.28925 16.9887 4.35488 16.875C4.9727 15.8063 5.74988 13.1072 5.74988 9.75Z" stroke="#222F3E" stroke-width="1.5" stroke-linecap="round" stroke-linejoin="round"/>
</g>
<defs>
<clipPath id="clip0_328_652">
<rect width="24" height="24" fill="white" transform="translate(0.5)"/>
</clipPath>
</defs>
</svg>
