<svg width="73" height="73" viewBox="0 0 73 73" fill="none" xmlns="http://www.w3.org/2000/svg">
<path d="M54.5819 9.64481C49.4871 11.4241 42.4556 13.9483 38.9608 15.1896L32.645 17.5069L29.5713 24.6241C24.5187 36.2517 23.0871 39.3965 22.9187 39.3965C22.8345 39.3965 22.8766 39.0241 23.0029 38.569C23.1292 38.1138 23.2134 37.7414 23.1292 37.7414C21.0661 37.8241 9.1924 39.0241 8.93977 39.1483C8.4345 39.4793 3.38187 46.5138 3.50819 46.6793C3.67661 46.8034 12.3503 45.1483 12.645 44.9414C12.7292 44.8586 12.4766 44.3207 12.0977 43.7C11.6766 43.1207 11.424 42.5414 11.5503 42.4586C11.6345 42.3758 13.1503 44.1138 14.9187 46.3896C16.6871 48.6655 19.1292 51.4379 20.3503 52.5552L22.5398 54.6241L28.0135 55.2862C43.2134 57.1896 48.7713 57.9759 45.7398 57.769C43.8871 57.6448 42.4977 57.6448 42.624 57.769C43.0029 58.1414 65.3187 67.8655 65.3187 67.6586C65.3187 67.5345 64.1398 65.7552 62.6661 63.6448C60.1819 60.1276 57.2345 55.6172 42.624 33.0655C39.5503 28.3069 37.1082 24.3345 37.1924 24.2931C37.2766 24.2103 39.1292 26.7345 41.3187 29.9207C43.5082 33.1069 45.8661 36.4586 46.5819 37.4103L47.8029 39.1069L52.0134 30.6655C54.3292 26.031 57.9924 18.7069 60.1398 14.4034C62.3292 10.1 64.0134 6.54137 63.9713 6.45861C63.8871 6.41723 59.6766 7.82412 54.5819 9.64481ZM50.7082 58.3069C50.4134 58.3896 49.9082 58.3896 49.6556 58.3069C49.3608 58.1827 49.5713 58.1 50.1608 58.1C50.7503 58.1 50.9608 58.1827 50.7082 58.3069Z" fill="#0090F8"/>
</svg>
