<svg width="23" height="22" viewBox="0 0 23 22" fill="none" xmlns="http://www.w3.org/2000/svg">
<path d="M21.1254 2.05778H21.1332C21.1834 2.05805 21.2329 2.06102 21.2817 2.06654L21.1254 2.06654C21.8799 2.06654 22.4917 2.67829 22.4917 3.43249V20.6207C22.4917 21.3752 21.8799 21.987 21.1254 21.987H1.87457C1.12005 21.987 0.508301 21.3752 0.508301 20.6207V3.43249C0.508301 2.67797 1.12005 2.06622 1.87457 2.06622H7.36999V2.05743H7.37878V0.687529C7.37878 0.312523 7.68252 0.00878906 8.05752 0.00878906C8.43253 0.00878906 8.73626 0.312523 8.73626 0.687529V2.05743H8.74505V2.06622H14.2453V2.05743H14.2541V0.687529C14.2541 0.312523 14.5578 0.00878906 14.9328 0.00878906C15.3078 0.00878906 15.6116 0.312523 15.6116 0.687529V2.05778H15.6203H15.6291H21.1254ZM1.87457 20.6207V20.6295H21.1254V20.6207H21.1342V3.43283H21.1254V3.42404H15.6203V3.43283H15.6116V4.12552C15.6116 4.50052 15.3078 4.80426 14.9328 4.80426C14.5578 4.80426 14.2541 4.50052 14.2541 4.12552V3.43283H14.2453V3.42404H8.74505V3.43283H8.73626V4.12518C8.73626 4.50016 8.43253 4.80392 8.05752 4.80392C7.68252 4.80392 7.37878 4.50016 7.37878 4.12518V3.43249H7.36999V3.4237H1.87457V3.43249H1.86578V20.6207H1.87457ZM17.6877 10.9868H16.3127C15.938 10.9868 15.6339 10.6828 15.6339 10.3081V8.93305C15.6339 8.55838 15.938 8.25431 16.3127 8.25431H17.6877C18.0624 8.25431 18.3665 8.55838 18.3665 8.93305V10.3081C18.3665 10.6828 18.0624 10.9868 17.6877 10.9868ZM17.6877 16.4867H16.3127C15.938 16.4867 15.6339 16.1833 15.6339 15.808V14.4329C15.6339 14.0583 15.938 13.7542 16.3127 13.7542H17.6877C18.0624 13.7542 18.3665 14.0583 18.3665 14.4329V15.808C18.3665 16.183 18.0624 16.4867 17.6877 16.4867ZM10.8125 13.7542H12.1875C12.5622 13.7542 12.8663 14.0586 12.8663 14.4329V15.808C12.8663 16.183 12.5622 16.4867 12.1875 16.4867H10.8125C10.4378 16.4867 10.1337 16.183 10.1337 15.808V14.4329C10.1337 14.0583 10.4378 13.7542 10.8125 13.7542ZM10.8125 8.25431H12.1875C12.5622 8.25431 12.8663 8.55804 12.8663 8.93305V10.3081C12.8663 10.6828 12.5622 10.9868 12.1875 10.9868H10.8125C10.4378 10.9868 10.1337 10.6828 10.1337 10.3081V8.93305C10.1337 8.55838 10.4378 8.25431 10.8125 8.25431ZM5.31222 8.25431H6.68728C7.06194 8.25431 7.36602 8.55804 7.36602 8.93305V10.3081C7.36602 10.6828 7.06194 10.9868 6.68728 10.9868H5.31222C4.93755 10.9868 4.63348 10.6828 4.63348 10.3081V8.93305C4.63348 8.55838 4.93755 8.25431 5.31222 8.25431ZM5.31222 13.7542H6.68728C7.06193 13.7542 7.36602 14.0586 7.36602 14.4329V15.808C7.36602 16.183 7.06194 16.4867 6.68728 16.4867H5.31222C4.93755 16.4867 4.63348 16.183 4.63348 15.808V14.4329C4.63348 14.0583 4.93755 13.7542 5.31222 13.7542Z" fill="#222F3E" stroke="#222F3E" stroke-width="0.0175781"/>
</svg>
