<svg width="22" height="21" viewBox="0 0 22 21" fill="none" xmlns="http://www.w3.org/2000/svg">
<path d="M10.3242 11.125V11.1133H10.3125H7.04688C6.95774 11.1133 6.88672 11.0472 6.88672 10.9688V10.0312C6.88672 9.95281 6.95774 9.88672 7.04688 9.88672H10.3125H10.3242V9.875V6.90625C10.3242 6.82781 10.3952 6.76172 10.4844 6.76172H11.5156C11.6048 6.76172 11.6758 6.82781 11.6758 6.90625V9.875V9.88672H11.6875H14.9531C15.0423 9.88672 15.1133 9.95281 15.1133 10.0312V10.9688C15.1133 11.0472 15.0423 11.1133 14.9531 11.1133H11.6875H11.6758V11.125V14.0938C11.6758 14.1722 11.6048 14.2383 11.5156 14.2383H10.4844C10.3952 14.2383 10.3242 14.1722 10.3242 14.0938V11.125Z" fill="#222F3E" stroke="#222F3E" stroke-width="0.0234375"/>
<path d="M18.9062 2.6875H3.09375C2.71348 2.6875 2.40625 2.9668 2.40625 3.3125V17.6875C2.40625 18.0332 2.71348 18.3125 3.09375 18.3125H18.9062C19.2865 18.3125 19.5938 18.0332 19.5938 17.6875V3.3125C19.5938 2.9668 19.2865 2.6875 18.9062 2.6875ZM18.0469 16.9062H3.95312V4.09375H18.0469V16.9062Z" fill="#222F3E"/>
</svg>
