<svg width="22" height="20" viewBox="0 0 22 20" fill="none" xmlns="http://www.w3.org/2000/svg">
<path d="M8.25016 1.53516L13.8184 4.48797L20.1668 2.08324V9.16658H18.3335V4.58324L14.6668 5.97213V9.16658H12.8335V5.89521L9.16683 3.95077V14.1046L10.8789 15.0125L9.95507 16.4521L8.18199 15.5118L1.8335 17.9166V4.93793L8.25016 1.53516ZM7.3335 14.0277V3.95077L3.66683 5.89521V15.4166L7.3335 14.0277ZM16.5002 11.6666C15.1079 11.6666 13.9793 12.6926 13.9793 13.9582C13.9793 15.0018 14.6528 16.0037 15.4596 16.8101C15.8331 17.1834 16.209 17.4886 16.5002 17.7054C16.7913 17.4886 17.1672 17.1834 17.5408 16.8101C18.3475 16.0037 19.021 15.0018 19.021 13.9582C19.021 12.6926 17.8924 11.6666 16.5002 11.6666ZM16.5002 19.751L15.9917 19.4432L15.9898 19.4421L15.9861 19.4398L15.975 19.4331L15.9386 19.4102C15.9082 19.3911 15.8658 19.3639 15.8131 19.329C15.7078 19.2593 15.5608 19.1587 15.386 19.0299C15.0376 18.7733 14.5718 18.3998 14.1033 17.9315C13.1913 17.0198 12.146 15.6259 12.146 13.9582C12.146 11.7721 14.0954 9.99991 16.5002 9.99991C18.9049 9.99991 20.8543 11.7721 20.8543 13.9582C20.8543 15.6259 19.8091 17.0198 18.8971 17.9315C18.4286 18.3998 17.9627 18.7733 17.6144 19.0299C17.4396 19.1587 17.2925 19.2593 17.1872 19.329C17.1345 19.3639 17.0921 19.3911 17.0617 19.4102L17.0253 19.4331L17.0142 19.4398L17.0106 19.4421L17.0092 19.4429L16.5002 19.751ZM15.3543 13.3332H17.646V14.9999H15.3543V13.3332Z" fill="#576574"/>
</svg>
