<svg width="22" height="20" viewBox="0 0 22 20" fill="none" xmlns="http://www.w3.org/2000/svg">
<path d="M11.5178 5.33203H10.4844C10.3898 5.33203 10.3125 5.40235 10.3125 5.48828V10.8652C10.3125 10.916 10.3383 10.9629 10.3834 10.9922L13.9348 13.3496C14.0121 13.4004 14.1195 13.3867 14.1754 13.3164L14.7898 12.5547C14.8478 12.4824 14.8307 12.3848 14.7533 12.3359L11.6896 10.3223V5.48828C11.6896 5.40235 11.6123 5.33203 11.5178 5.33203ZM16.24 6.80078L19.6088 7.54883C19.7162 7.57227 19.8215 7.49805 19.8215 7.39844L19.8387 4.24414C19.8387 4.11328 19.6732 4.03907 19.5615 4.1211L16.1756 6.52539C16.15 6.54339 16.1305 6.56759 16.1194 6.5952C16.1082 6.62282 16.1059 6.65273 16.1126 6.6815C16.1194 6.71027 16.1349 6.73672 16.1574 6.75782C16.18 6.77893 16.2086 6.79382 16.24 6.80078ZM19.843 12.6816L18.6248 12.3008C18.5823 12.2875 18.5358 12.2899 18.4953 12.3075C18.4547 12.325 18.4233 12.3562 18.4078 12.3945C18.367 12.4941 18.324 12.5918 18.2789 12.6895C17.8965 13.5117 17.3486 14.252 16.6482 14.8867C15.9556 15.5183 15.1348 16.0218 14.2312 16.3691C13.2952 16.7289 12.2891 16.9136 11.2728 16.9121C10.2459 16.9121 9.25116 16.7305 8.31444 16.3691C7.41089 16.0218 6.59006 15.5183 5.89745 14.8867C5.19921 14.252 4.65136 13.5117 4.26679 12.6895C3.87323 11.8381 3.67159 10.9235 3.67382 10C3.67382 9.06641 3.87362 8.16016 4.27108 7.3086C4.6535 6.48633 5.20136 5.7461 5.90175 5.11133C6.59436 4.47973 7.41519 3.97628 8.31874 3.62891C9.25116 3.26758 10.248 3.08594 11.275 3.08594C12.3019 3.08594 13.2967 3.26758 14.2334 3.62891C15.1369 3.97628 15.9578 4.47973 16.6504 5.11133C16.8695 5.3125 17.0758 5.52149 17.2648 5.74219L18.5496 4.82813C16.8588 2.86328 14.2269 1.59961 11.2707 1.60156C6.12304 1.60352 1.98944 5.4043 2.041 10.0859C2.09257 14.6856 6.20682 18.3984 11.275 18.3984C15.2603 18.3984 18.6549 16.1016 19.9482 12.8848C19.9805 12.8027 19.9332 12.7109 19.843 12.6816Z" fill="#576574"/>
</svg>
