<svg width="22" height="21" viewBox="0 0 22 21" fill="none" xmlns="http://www.w3.org/2000/svg">
<path d="M11.5 2.67949C16.0942 2.9144 19.6667 6.36643 19.6667 10.5001C19.6667 14.7825 15.8324 18.3334 11 18.3334C6.16766 18.3334 2.33337 14.7825 2.33337 10.5001C2.33337 8.44346 3.21106 6.56558 4.65919 5.16108L5.5448 4.30216H4.31109H1.89795V3.6355H7.31462V8.46883H6.48128V5.63906V4.55493L5.65668 5.25876C4.13136 6.56068 3.1667 8.42286 3.1667 10.5001C3.1667 14.5019 6.71972 17.6667 11 17.6667C15.2804 17.6667 18.8334 14.5019 18.8334 10.5001C18.8334 6.65518 15.5536 3.5829 11.5 3.34787V2.67949Z" fill="white" stroke="#222F3E"/>
</svg>
