<svg width="242" height="58" viewBox="0 0 242 58" fill="none" xmlns="http://www.w3.org/2000/svg">
<path d="M42.4094 8.11269C38.4468 9.4966 32.9778 11.4598 30.2597 12.4253L25.3474 14.2276L22.9568 19.7633C19.0269 28.8069 17.9135 31.2529 17.7825 31.2529C17.717 31.2529 17.7497 30.9633 17.848 30.6092C17.9462 30.2552 18.0117 29.9656 17.9462 29.9656C16.3415 30.0299 7.10646 30.9633 6.90997 31.0598C6.51698 31.3173 2.58716 36.7886 2.6854 36.9173C2.8164 37.0138 9.5626 35.7265 9.79184 35.5656C9.85733 35.5012 9.66084 35.0828 9.36611 34.6C9.03862 34.1495 8.84213 33.6989 8.94038 33.6345C9.00587 33.5702 10.1848 34.9219 11.5603 36.692C12.9357 38.4621 14.8351 40.6184 15.7848 41.4874L17.4877 43.0966L21.7451 43.6115C33.5673 45.092 37.8901 45.7035 35.5322 45.5426C34.0913 45.446 33.0106 45.446 33.1088 45.5426C33.4035 45.8322 50.7603 53.3954 50.7603 53.2345C50.7603 53.138 49.8433 51.7541 48.6971 50.1127C46.7649 47.3771 44.4725 43.869 33.1088 26.3288C30.7182 22.6276 28.8187 19.538 28.8842 19.5058C28.9497 19.4414 30.3907 21.4046 32.0936 23.8828C33.7965 26.361 35.6304 28.9679 36.1872 29.7081L37.1369 31.0276L40.4117 24.4621C42.2129 20.8575 45.062 15.161 46.7322 11.8138C48.4351 8.46671 49.7451 5.6989 49.7123 5.63453C49.6468 5.60235 46.372 6.6966 42.4094 8.11269ZM39.3965 45.961C39.1673 46.0253 38.7743 46.0253 38.5778 45.961C38.3486 45.8644 38.5123 45.8 38.9708 45.8C39.4293 45.8 39.593 45.8644 39.3965 45.961Z" fill="#0090F8"/>
<path d="M73.3 33.21C71.84 33.21 70.52 32.96 69.34 32.46C68.18 31.96 67.26 31.24 66.58 30.3C65.9 29.36 65.55 28.25 65.53 26.97H70.03C70.09 27.83 70.39 28.51 70.93 29.01C71.49 29.51 72.25 29.76 73.21 29.76C74.19 29.76 74.96 29.53 75.52 29.07C76.08 28.59 76.36 27.97 76.36 27.21C76.36 26.59 76.17 26.08 75.79 25.68C75.41 25.28 74.93 24.97 74.35 24.75C73.79 24.51 73.01 24.25 72.01 23.97C70.65 23.57 69.54 23.18 68.68 22.8C67.84 22.4 67.11 21.81 66.49 21.03C65.89 20.23 65.59 19.17 65.59 17.85C65.59 16.61 65.9 15.53 66.52 14.61C67.14 13.69 68.01 12.99 69.13 12.51C70.25 12.01 71.53 11.76 72.97 11.76C75.13 11.76 76.88 12.29 78.22 13.35C79.58 14.39 80.33 15.85 80.47 17.73H75.85C75.81 17.01 75.5 16.42 74.92 15.96C74.36 15.48 73.61 15.24 72.67 15.24C71.85 15.24 71.19 15.45 70.69 15.87C70.21 16.29 69.97 16.9 69.97 17.7C69.97 18.26 70.15 18.73 70.51 19.11C70.89 19.47 71.35 19.77 71.89 20.01C72.45 20.23 73.23 20.49 74.23 20.79C75.59 21.19 76.7 21.59 77.56 21.99C78.42 22.39 79.16 22.99 79.78 23.79C80.4 24.59 80.71 25.64 80.71 26.94C80.71 28.06 80.42 29.1 79.84 30.06C79.26 31.02 78.41 31.79 77.29 32.37C76.17 32.93 74.84 33.21 73.3 33.21ZM91.7313 33.27C90.1313 33.27 88.6913 32.92 87.4113 32.22C86.1313 31.5 85.1213 30.49 84.3813 29.19C83.6613 27.89 83.3013 26.39 83.3013 24.69C83.3013 22.99 83.6713 21.49 84.4113 20.19C85.1713 18.89 86.2013 17.89 87.5013 17.19C88.8013 16.47 90.2513 16.11 91.8513 16.11C93.4513 16.11 94.9013 16.47 96.2013 17.19C97.5013 17.89 98.5213 18.89 99.2613 20.19C100.021 21.49 100.401 22.99 100.401 24.69C100.401 26.39 100.011 27.89 99.2312 29.19C98.4713 30.49 97.4313 31.5 96.1113 32.22C94.8113 32.92 93.3513 33.27 91.7313 33.27ZM91.7313 29.61C92.4913 29.61 93.2013 29.43 93.8613 29.07C94.5413 28.69 95.0813 28.13 95.4813 27.39C95.8813 26.65 96.0813 25.75 96.0813 24.69C96.0813 23.11 95.6613 21.9 94.8213 21.06C94.0013 20.2 92.9913 19.77 91.7913 19.77C90.5913 19.77 89.5813 20.2 88.7613 21.06C87.9613 21.9 87.5613 23.11 87.5613 24.69C87.5613 26.27 87.9513 27.49 88.7313 28.35C89.5313 29.19 90.5313 29.61 91.7313 29.61ZM102.402 24.63C102.402 22.95 102.732 21.46 103.392 20.16C104.072 18.86 104.982 17.86 106.122 17.16C107.282 16.46 108.572 16.11 109.992 16.11C111.232 16.11 112.312 16.36 113.232 16.86C114.172 17.36 114.922 17.99 115.482 18.75V16.38H119.712V33H115.482V30.57C114.942 31.35 114.192 32 113.232 32.52C112.292 33.02 111.202 33.27 109.962 33.27C108.562 33.27 107.282 32.91 106.122 32.19C104.982 31.47 104.072 30.46 103.392 29.16C102.732 27.84 102.402 26.33 102.402 24.63ZM115.482 24.69C115.482 23.67 115.282 22.8 114.882 22.08C114.482 21.34 113.942 20.78 113.262 20.4C112.582 20 111.852 19.8 111.072 19.8C110.292 19.8 109.572 19.99 108.912 20.37C108.252 20.75 107.712 21.31 107.292 22.05C106.892 22.77 106.692 23.63 106.692 24.63C106.692 25.63 106.892 26.51 107.292 27.27C107.712 28.01 108.252 28.58 108.912 28.98C109.592 29.38 110.312 29.58 111.072 29.58C111.852 29.58 112.582 29.39 113.262 29.01C113.942 28.61 114.482 28.05 114.882 27.33C115.282 26.59 115.482 25.71 115.482 24.69ZM128.014 18.96C128.554 18.08 129.254 17.39 130.114 16.89C130.994 16.39 131.994 16.14 133.114 16.14V20.55H132.004C130.684 20.55 129.684 20.86 129.004 21.48C128.344 22.1 128.014 23.18 128.014 24.72V33H123.814V16.38H128.014V18.96ZM150.321 33.21C148.861 33.21 147.541 32.96 146.361 32.46C145.201 31.96 144.281 31.24 143.601 30.3C142.921 29.36 142.571 28.25 142.551 26.97H147.051C147.111 27.83 147.411 28.51 147.951 29.01C148.511 29.51 149.271 29.76 150.231 29.76C151.211 29.76 151.981 29.53 152.541 29.07C153.101 28.59 153.381 27.97 153.381 27.21C153.381 26.59 153.191 26.08 152.811 25.68C152.431 25.28 151.951 24.97 151.371 24.75C150.811 24.51 150.031 24.25 149.031 23.97C147.671 23.57 146.561 23.18 145.701 22.8C144.861 22.4 144.131 21.81 143.511 21.03C142.911 20.23 142.611 19.17 142.611 17.85C142.611 16.61 142.921 15.53 143.541 14.61C144.161 13.69 145.031 12.99 146.151 12.51C147.271 12.01 148.551 11.76 149.991 11.76C152.151 11.76 153.901 12.29 155.241 13.35C156.601 14.39 157.351 15.85 157.491 17.73H152.871C152.831 17.01 152.521 16.42 151.941 15.96C151.381 15.48 150.631 15.24 149.691 15.24C148.871 15.24 148.211 15.45 147.711 15.87C147.231 16.29 146.991 16.9 146.991 17.7C146.991 18.26 147.171 18.73 147.531 19.11C147.911 19.47 148.371 19.77 148.911 20.01C149.471 20.23 150.251 20.49 151.251 20.79C152.611 21.19 153.721 21.59 154.581 21.99C155.441 22.39 156.181 22.99 156.801 23.79C157.421 24.59 157.731 25.64 157.731 26.94C157.731 28.06 157.441 29.1 156.861 30.06C156.281 31.02 155.431 31.79 154.311 32.37C153.191 32.93 151.861 33.21 150.321 33.21ZM166.263 19.83V27.87C166.263 28.43 166.393 28.84 166.653 29.1C166.933 29.34 167.393 29.46 168.033 29.46H169.983V33H167.343C163.803 33 162.033 31.28 162.033 27.84V19.83H160.053V16.38H162.033V12.27H166.263V16.38H169.983V19.83H166.263ZM188.694 16.38V33H184.464V30.9C183.924 31.62 183.214 32.19 182.334 32.61C181.474 33.01 180.534 33.21 179.514 33.21C178.214 33.21 177.064 32.94 176.064 32.4C175.064 31.84 174.274 31.03 173.694 29.97C173.134 28.89 172.854 27.61 172.854 26.13V16.38H177.054V25.53C177.054 26.85 177.384 27.87 178.044 28.59C178.704 29.29 179.604 29.64 180.744 29.64C181.904 29.64 182.814 29.29 183.474 28.59C184.134 27.87 184.464 26.85 184.464 25.53V16.38H188.694ZM191.758 24.63C191.758 22.95 192.088 21.46 192.748 20.16C193.428 18.86 194.348 17.86 195.508 17.16C196.668 16.46 197.958 16.11 199.378 16.11C200.458 16.11 201.488 16.35 202.468 16.83C203.448 17.29 204.228 17.91 204.808 18.69V10.8H209.068V33H204.808V30.54C204.288 31.36 203.558 32.02 202.618 32.52C201.678 33.02 200.588 33.27 199.348 33.27C197.948 33.27 196.668 32.91 195.508 32.19C194.348 31.47 193.428 30.46 192.748 29.16C192.088 27.84 191.758 26.33 191.758 24.63ZM204.838 24.69C204.838 23.67 204.638 22.8 204.238 22.08C203.838 21.34 203.298 20.78 202.618 20.4C201.938 20 201.208 19.8 200.428 19.8C199.648 19.8 198.928 19.99 198.268 20.37C197.608 20.75 197.068 21.31 196.648 22.05C196.248 22.77 196.048 23.63 196.048 24.63C196.048 25.63 196.248 26.51 196.648 27.27C197.068 28.01 197.608 28.58 198.268 28.98C198.948 29.38 199.668 29.58 200.428 29.58C201.208 29.58 201.938 29.39 202.618 29.01C203.298 28.61 203.838 28.05 204.238 27.33C204.638 26.59 204.838 25.71 204.838 24.69ZM215.3 14.4C214.56 14.4 213.94 14.17 213.44 13.71C212.96 13.23 212.72 12.64 212.72 11.94C212.72 11.24 212.96 10.66 213.44 10.2C213.94 9.72 214.56 9.48 215.3 9.48C216.04 9.48 216.65 9.72 217.13 10.2C217.63 10.66 217.88 11.24 217.88 11.94C217.88 12.64 217.63 13.23 217.13 13.71C216.65 14.17 216.04 14.4 215.3 14.4ZM217.37 16.38V33H213.17V16.38H217.37ZM228.899 33.27C227.299 33.27 225.859 32.92 224.579 32.22C223.299 31.5 222.289 30.49 221.549 29.19C220.829 27.89 220.469 26.39 220.469 24.69C220.469 22.99 220.839 21.49 221.579 20.19C222.339 18.89 223.369 17.89 224.669 17.19C225.969 16.47 227.419 16.11 229.019 16.11C230.619 16.11 232.069 16.47 233.369 17.19C234.669 17.89 235.689 18.89 236.429 20.19C237.189 21.49 237.569 22.99 237.569 24.69C237.569 26.39 237.179 27.89 236.399 29.19C235.639 30.49 234.599 31.5 233.279 32.22C231.979 32.92 230.519 33.27 228.899 33.27ZM228.899 29.61C229.659 29.61 230.369 29.43 231.029 29.07C231.709 28.69 232.249 28.13 232.649 27.39C233.049 26.65 233.249 25.75 233.249 24.69C233.249 23.11 232.829 21.9 231.989 21.06C231.169 20.2 230.159 19.77 228.959 19.77C227.759 19.77 226.749 20.2 225.929 21.06C225.129 21.9 224.729 23.11 224.729 24.69C224.729 26.27 225.119 27.49 225.899 28.35C226.699 29.19 227.699 29.61 228.899 29.61Z" fill="#0090F8"/>
<path d="M65.992 44.636V49.928C65.992 50.672 66.172 51.224 66.532 51.584C66.9 51.944 67.408 52.124 68.056 52.124C68.696 52.124 69.196 51.944 69.556 51.584C69.924 51.224 70.108 50.672 70.108 49.928V44.636H71.2V49.916C71.2 50.612 71.06 51.2 70.78 51.68C70.5 52.152 70.12 52.504 69.64 52.736C69.168 52.968 68.636 53.084 68.044 53.084C67.452 53.084 66.916 52.968 66.436 52.736C65.964 52.504 65.588 52.152 65.308 51.68C65.036 51.2 64.9 50.612 64.9 49.916V44.636H65.992ZM74.7137 44.12V53H73.6217V44.12H74.7137ZM78.5068 47.324V51.2C78.5068 51.52 78.5748 51.748 78.7108 51.884C78.8468 52.012 79.0828 52.076 79.4188 52.076H80.2228V53H79.2388C78.6308 53 78.1748 52.86 77.8708 52.58C77.5668 52.3 77.4148 51.84 77.4148 51.2V47.324H76.5628V46.424H77.4148V44.768H78.5068V46.424H80.2228V47.324H78.5068ZM82.7099 45.356C82.5019 45.356 82.3259 45.284 82.1819 45.14C82.0379 44.996 81.9659 44.82 81.9659 44.612C81.9659 44.404 82.0379 44.228 82.1819 44.084C82.3259 43.94 82.5019 43.868 82.7099 43.868C82.9099 43.868 83.0779 43.94 83.2139 44.084C83.3579 44.228 83.4299 44.404 83.4299 44.612C83.4299 44.82 83.3579 44.996 83.2139 45.14C83.0779 45.284 82.9099 45.356 82.7099 45.356ZM83.2379 46.424V53H82.1459V46.424H83.2379ZM93.607 46.304C94.119 46.304 94.575 46.412 94.975 46.628C95.375 46.836 95.691 47.152 95.923 47.576C96.155 48 96.271 48.516 96.271 49.124V53H95.191V49.28C95.191 48.624 95.027 48.124 94.699 47.78C94.379 47.428 93.943 47.252 93.391 47.252C92.823 47.252 92.371 47.436 92.035 47.804C91.699 48.164 91.531 48.688 91.531 49.376V53H90.451V49.28C90.451 48.624 90.287 48.124 89.959 47.78C89.639 47.428 89.203 47.252 88.651 47.252C88.083 47.252 87.631 47.436 87.295 47.804C86.959 48.164 86.791 48.688 86.791 49.376V53H85.699V46.424H86.791V47.372C87.007 47.028 87.295 46.764 87.655 46.58C88.023 46.396 88.427 46.304 88.867 46.304C89.419 46.304 89.907 46.428 90.331 46.676C90.755 46.924 91.071 47.288 91.279 47.768C91.463 47.304 91.767 46.944 92.191 46.688C92.615 46.432 93.087 46.304 93.607 46.304ZM98.2543 49.688C98.2543 49.016 98.3903 48.428 98.6623 47.924C98.9343 47.412 99.3063 47.016 99.7783 46.736C100.258 46.456 100.79 46.316 101.374 46.316C101.95 46.316 102.45 46.44 102.874 46.688C103.298 46.936 103.614 47.248 103.822 47.624V46.424H104.926V53H103.822V51.776C103.606 52.16 103.282 52.48 102.85 52.736C102.426 52.984 101.93 53.108 101.362 53.108C100.778 53.108 100.25 52.964 99.7783 52.676C99.3063 52.388 98.9343 51.984 98.6623 51.464C98.3903 50.944 98.2543 50.352 98.2543 49.688ZM103.822 49.7C103.822 49.204 103.722 48.772 103.522 48.404C103.322 48.036 103.05 47.756 102.706 47.564C102.37 47.364 101.998 47.264 101.59 47.264C101.182 47.264 100.81 47.36 100.474 47.552C100.138 47.744 99.8703 48.024 99.6703 48.392C99.4703 48.76 99.3703 49.192 99.3703 49.688C99.3703 50.192 99.4703 50.632 99.6703 51.008C99.8703 51.376 100.138 51.66 100.474 51.86C100.81 52.052 101.182 52.148 101.59 52.148C101.998 52.148 102.37 52.052 102.706 51.86C103.05 51.66 103.322 51.376 103.522 51.008C103.722 50.632 103.822 50.196 103.822 49.7ZM108.704 47.324V51.2C108.704 51.52 108.772 51.748 108.908 51.884C109.044 52.012 109.28 52.076 109.616 52.076H110.42V53H109.436C108.828 53 108.372 52.86 108.068 52.58C107.764 52.3 107.612 51.84 107.612 51.2V47.324H106.76V46.424H107.612V44.768H108.704V46.424H110.42V47.324H108.704ZM118.343 49.46C118.343 49.668 118.331 49.888 118.307 50.12H113.051C113.091 50.768 113.311 51.276 113.711 51.644C114.119 52.004 114.611 52.184 115.187 52.184C115.659 52.184 116.051 52.076 116.363 51.86C116.683 51.636 116.907 51.34 117.035 50.972H118.211C118.035 51.604 117.683 52.12 117.155 52.52C116.627 52.912 115.971 53.108 115.187 53.108C114.563 53.108 114.003 52.968 113.507 52.688C113.019 52.408 112.635 52.012 112.355 51.5C112.075 50.98 111.935 50.38 111.935 49.7C111.935 49.02 112.071 48.424 112.343 47.912C112.615 47.4 112.995 47.008 113.483 46.736C113.979 46.456 114.547 46.316 115.187 46.316C115.811 46.316 116.363 46.452 116.843 46.724C117.323 46.996 117.691 47.372 117.947 47.852C118.211 48.324 118.343 48.86 118.343 49.46ZM117.215 49.232C117.215 48.816 117.123 48.46 116.939 48.164C116.755 47.86 116.503 47.632 116.183 47.48C115.871 47.32 115.523 47.24 115.139 47.24C114.587 47.24 114.115 47.416 113.723 47.768C113.339 48.12 113.119 48.608 113.063 49.232H117.215ZM126.835 53.084C126.283 53.084 125.787 52.988 125.347 52.796C124.915 52.596 124.575 52.324 124.327 51.98C124.079 51.628 123.951 51.224 123.943 50.768H125.107C125.147 51.16 125.307 51.492 125.587 51.764C125.875 52.028 126.291 52.16 126.835 52.16C127.355 52.16 127.763 52.032 128.059 51.776C128.363 51.512 128.515 51.176 128.515 50.768C128.515 50.448 128.427 50.188 128.251 49.988C128.075 49.788 127.855 49.636 127.591 49.532C127.327 49.428 126.971 49.316 126.523 49.196C125.971 49.052 125.527 48.908 125.191 48.764C124.863 48.62 124.579 48.396 124.339 48.092C124.107 47.78 123.991 47.364 123.991 46.844C123.991 46.388 124.107 45.984 124.339 45.632C124.571 45.28 124.895 45.008 125.311 44.816C125.735 44.624 126.219 44.528 126.763 44.528C127.547 44.528 128.187 44.724 128.683 45.116C129.187 45.508 129.471 46.028 129.535 46.676H128.335C128.295 46.356 128.127 46.076 127.831 45.836C127.535 45.588 127.143 45.464 126.655 45.464C126.199 45.464 125.827 45.584 125.539 45.824C125.251 46.056 125.107 46.384 125.107 46.808C125.107 47.112 125.191 47.36 125.359 47.552C125.535 47.744 125.747 47.892 125.995 47.996C126.251 48.092 126.607 48.204 127.063 48.332C127.615 48.484 128.059 48.636 128.395 48.788C128.731 48.932 129.019 49.16 129.259 49.472C129.499 49.776 129.619 50.192 129.619 50.72C129.619 51.128 129.511 51.512 129.295 51.872C129.079 52.232 128.759 52.524 128.335 52.748C127.911 52.972 127.411 53.084 126.835 53.084ZM137.826 49.46C137.826 49.668 137.814 49.888 137.79 50.12H132.534C132.574 50.768 132.794 51.276 133.194 51.644C133.602 52.004 134.094 52.184 134.67 52.184C135.142 52.184 135.534 52.076 135.846 51.86C136.166 51.636 136.39 51.34 136.518 50.972H137.694C137.518 51.604 137.166 52.12 136.638 52.52C136.11 52.912 135.454 53.108 134.67 53.108C134.046 53.108 133.486 52.968 132.99 52.688C132.502 52.408 132.118 52.012 131.838 51.5C131.558 50.98 131.418 50.38 131.418 49.7C131.418 49.02 131.554 48.424 131.826 47.912C132.098 47.4 132.478 47.008 132.966 46.736C133.462 46.456 134.03 46.316 134.67 46.316C135.294 46.316 135.846 46.452 136.326 46.724C136.806 46.996 137.174 47.372 137.43 47.852C137.694 48.324 137.826 48.86 137.826 49.46ZM136.698 49.232C136.698 48.816 136.606 48.46 136.422 48.164C136.238 47.86 135.986 47.632 135.666 47.48C135.354 47.32 135.006 47.24 134.622 47.24C134.07 47.24 133.598 47.416 133.206 47.768C132.822 48.12 132.602 48.608 132.546 49.232H136.698ZM139.46 49.7C139.46 49.02 139.596 48.428 139.868 47.924C140.14 47.412 140.516 47.016 140.996 46.736C141.484 46.456 142.04 46.316 142.664 46.316C143.472 46.316 144.136 46.512 144.656 46.904C145.184 47.296 145.532 47.84 145.7 48.536H144.524C144.412 48.136 144.192 47.82 143.864 47.588C143.544 47.356 143.144 47.24 142.664 47.24C142.04 47.24 141.536 47.456 141.152 47.888C140.768 48.312 140.576 48.916 140.576 49.7C140.576 50.492 140.768 51.104 141.152 51.536C141.536 51.968 142.04 52.184 142.664 52.184C143.144 52.184 143.544 52.072 143.864 51.848C144.184 51.624 144.404 51.304 144.524 50.888H145.7C145.524 51.56 145.172 52.1 144.644 52.508C144.116 52.908 143.456 53.108 142.664 53.108C142.04 53.108 141.484 52.968 140.996 52.688C140.516 52.408 140.14 52.012 139.868 51.5C139.596 50.988 139.46 50.388 139.46 49.7ZM153.589 46.424V53H152.497V52.028C152.289 52.364 151.997 52.628 151.621 52.82C151.253 53.004 150.845 53.096 150.397 53.096C149.885 53.096 149.425 52.992 149.017 52.784C148.609 52.568 148.285 52.248 148.045 51.824C147.813 51.4 147.697 50.884 147.697 50.276V46.424H148.777V50.132C148.777 50.78 148.941 51.28 149.269 51.632C149.597 51.976 150.045 52.148 150.613 52.148C151.197 52.148 151.657 51.968 151.993 51.608C152.329 51.248 152.497 50.724 152.497 50.036V46.424H153.589ZM157.125 47.492C157.317 47.116 157.589 46.824 157.941 46.616C158.301 46.408 158.737 46.304 159.249 46.304V47.432H158.961C157.737 47.432 157.125 48.096 157.125 49.424V53H156.033V46.424H157.125V47.492ZM161.673 45.356C161.465 45.356 161.289 45.284 161.145 45.14C161.001 44.996 160.929 44.82 160.929 44.612C160.929 44.404 161.001 44.228 161.145 44.084C161.289 43.94 161.465 43.868 161.673 43.868C161.873 43.868 162.041 43.94 162.177 44.084C162.321 44.228 162.393 44.404 162.393 44.612C162.393 44.82 162.321 44.996 162.177 45.14C162.041 45.284 161.873 45.356 161.673 45.356ZM162.201 46.424V53H161.109V46.424H162.201ZM165.994 47.324V51.2C165.994 51.52 166.062 51.748 166.198 51.884C166.334 52.012 166.57 52.076 166.906 52.076H167.71V53H166.726C166.118 53 165.662 52.86 165.358 52.58C165.054 52.3 164.902 51.84 164.902 51.2V47.324H164.05V46.424H164.902V44.768H165.994V46.424H167.71V47.324H165.994ZM175.297 46.424L171.337 56.096H170.209L171.505 52.928L168.853 46.424H170.065L172.129 51.752L174.169 46.424H175.297ZM186.386 47.084C186.386 47.78 186.146 48.36 185.666 48.824C185.194 49.28 184.47 49.508 183.494 49.508H181.886V53H180.794V44.636H183.494C184.438 44.636 185.154 44.864 185.642 45.32C186.138 45.776 186.386 46.364 186.386 47.084ZM183.494 48.608C184.102 48.608 184.55 48.476 184.838 48.212C185.126 47.948 185.27 47.572 185.27 47.084C185.27 46.052 184.678 45.536 183.494 45.536H181.886V48.608H183.494ZM189.436 47.492C189.628 47.116 189.9 46.824 190.252 46.616C190.612 46.408 191.048 46.304 191.56 46.304V47.432H191.272C190.048 47.432 189.436 48.096 189.436 49.424V53H188.344V46.424H189.436V47.492ZM196.288 53.108C195.672 53.108 195.112 52.968 194.608 52.688C194.112 52.408 193.72 52.012 193.432 51.5C193.152 50.98 193.012 50.38 193.012 49.7C193.012 49.028 193.156 48.436 193.444 47.924C193.74 47.404 194.14 47.008 194.644 46.736C195.148 46.456 195.712 46.316 196.336 46.316C196.96 46.316 197.524 46.456 198.028 46.736C198.532 47.008 198.928 47.4 199.216 47.912C199.512 48.424 199.66 49.02 199.66 49.7C199.66 50.38 199.508 50.98 199.204 51.5C198.908 52.012 198.504 52.408 197.992 52.688C197.48 52.968 196.912 53.108 196.288 53.108ZM196.288 52.148C196.68 52.148 197.048 52.056 197.392 51.872C197.736 51.688 198.012 51.412 198.22 51.044C198.436 50.676 198.544 50.228 198.544 49.7C198.544 49.172 198.44 48.724 198.232 48.356C198.024 47.988 197.752 47.716 197.416 47.54C197.08 47.356 196.716 47.264 196.324 47.264C195.924 47.264 195.556 47.356 195.22 47.54C194.892 47.716 194.628 47.988 194.428 48.356C194.228 48.724 194.128 49.172 194.128 49.7C194.128 50.236 194.224 50.688 194.416 51.056C194.616 51.424 194.88 51.7 195.208 51.884C195.536 52.06 195.896 52.148 196.288 52.148ZM204.144 51.992L206.184 46.424H207.348L204.768 53H203.496L200.916 46.424H202.092L204.144 51.992ZM209.586 45.356C209.378 45.356 209.202 45.284 209.058 45.14C208.914 44.996 208.842 44.82 208.842 44.612C208.842 44.404 208.914 44.228 209.058 44.084C209.202 43.94 209.378 43.868 209.586 43.868C209.786 43.868 209.954 43.94 210.09 44.084C210.234 44.228 210.306 44.404 210.306 44.612C210.306 44.82 210.234 44.996 210.09 45.14C209.954 45.284 209.786 45.356 209.586 45.356ZM210.114 46.424V53H209.022V46.424H210.114ZM212.168 49.688C212.168 49.016 212.304 48.428 212.576 47.924C212.848 47.412 213.22 47.016 213.692 46.736C214.172 46.456 214.708 46.316 215.3 46.316C215.812 46.316 216.288 46.436 216.728 46.676C217.168 46.908 217.504 47.216 217.736 47.6V44.12H218.84V53H217.736V51.764C217.52 52.156 217.2 52.48 216.776 52.736C216.352 52.984 215.856 53.108 215.288 53.108C214.704 53.108 214.172 52.964 213.692 52.676C213.22 52.388 212.848 51.984 212.576 51.464C212.304 50.944 212.168 50.352 212.168 49.688ZM217.736 49.7C217.736 49.204 217.636 48.772 217.436 48.404C217.236 48.036 216.964 47.756 216.62 47.564C216.284 47.364 215.912 47.264 215.504 47.264C215.096 47.264 214.724 47.36 214.388 47.552C214.052 47.744 213.784 48.024 213.584 48.392C213.384 48.76 213.284 49.192 213.284 49.688C213.284 50.192 213.384 50.632 213.584 51.008C213.784 51.376 214.052 51.66 214.388 51.86C214.724 52.052 215.096 52.148 215.504 52.148C215.912 52.148 216.284 52.052 216.62 51.86C216.964 51.66 217.236 51.376 217.436 51.008C217.636 50.632 217.736 50.196 217.736 49.7ZM227.285 49.46C227.285 49.668 227.273 49.888 227.249 50.12H221.993C222.033 50.768 222.253 51.276 222.653 51.644C223.061 52.004 223.553 52.184 224.129 52.184C224.601 52.184 224.993 52.076 225.305 51.86C225.625 51.636 225.849 51.34 225.977 50.972H227.153C226.977 51.604 226.625 52.12 226.097 52.52C225.569 52.912 224.913 53.108 224.129 53.108C223.505 53.108 222.945 52.968 222.449 52.688C221.961 52.408 221.577 52.012 221.297 51.5C221.017 50.98 220.877 50.38 220.877 49.7C220.877 49.02 221.013 48.424 221.285 47.912C221.557 47.4 221.937 47.008 222.425 46.736C222.921 46.456 223.489 46.316 224.129 46.316C224.753 46.316 225.305 46.452 225.785 46.724C226.265 46.996 226.633 47.372 226.889 47.852C227.153 48.324 227.285 48.86 227.285 49.46ZM226.157 49.232C226.157 48.816 226.065 48.46 225.881 48.164C225.697 47.86 225.445 47.632 225.125 47.48C224.813 47.32 224.465 47.24 224.081 47.24C223.529 47.24 223.057 47.416 222.665 47.768C222.281 48.12 222.061 48.608 222.005 49.232H226.157ZM230.418 47.492C230.61 47.116 230.882 46.824 231.234 46.616C231.594 46.408 232.03 46.304 232.542 46.304V47.432H232.254C231.03 47.432 230.418 48.096 230.418 49.424V53H229.326V46.424H230.418V47.492Z" fill="#222F3E"/>
</svg>
