<svg width="22" height="20" viewBox="0 0 22 20" fill="none" xmlns="http://www.w3.org/2000/svg">
<path d="M2.44444 2.14286C2.10833 2.14286 1.83333 2.46429 1.83333 2.85714V17.1429C1.83333 17.5357 2.10833 17.8571 2.44444 17.8571H19.5556C19.8917 17.8571 20.1667 17.5357 20.1667 17.1429V2.85714C20.1667 2.46429 19.8917 2.14286 19.5556 2.14286H2.44444ZM0 2.85714C0 1.28125 1.09618 0 2.44444 0H19.5556C20.9038 0 22 1.28125 22 2.85714V17.1429C22 18.7188 20.9038 20 19.5556 20H2.44444C1.09618 20 0 18.7188 0 17.1429V2.85714ZM3.66667 5.71429C3.66667 5.33541 3.79544 4.97204 4.02465 4.70413C4.25386 4.43622 4.56474 4.28571 4.88889 4.28571C5.21304 4.28571 5.52392 4.43622 5.75313 4.70413C5.98234 4.97204 6.11111 5.33541 6.11111 5.71429C6.11111 6.09317 5.98234 6.45653 5.75313 6.72444C5.52392 6.99235 5.21304 7.14286 4.88889 7.14286C4.56474 7.14286 4.25386 6.99235 4.02465 6.72444C3.79544 6.45653 3.66667 6.09317 3.66667 5.71429ZM7.63889 5.71429C7.63889 5.12054 8.04757 4.64286 8.55556 4.64286H17.1111C17.6191 4.64286 18.0278 5.12054 18.0278 5.71429C18.0278 6.30804 17.6191 6.78571 17.1111 6.78571H8.55556C8.04757 6.78571 7.63889 6.30804 7.63889 5.71429ZM7.63889 10C7.63889 9.40625 8.04757 8.92857 8.55556 8.92857H17.1111C17.6191 8.92857 18.0278 9.40625 18.0278 10C18.0278 10.5938 17.6191 11.0714 17.1111 11.0714H8.55556C8.04757 11.0714 7.63889 10.5938 7.63889 10ZM7.63889 14.2857C7.63889 13.692 8.04757 13.2143 8.55556 13.2143H17.1111C17.6191 13.2143 18.0278 13.692 18.0278 14.2857C18.0278 14.8795 17.6191 15.3571 17.1111 15.3571H8.55556C8.04757 15.3571 7.63889 14.8795 7.63889 14.2857ZM4.88889 11.4286C4.56474 11.4286 4.25386 11.2781 4.02465 11.0102C3.79544 10.7422 3.66667 10.3789 3.66667 10C3.66667 9.62112 3.79544 9.25776 4.02465 8.98985C4.25386 8.72194 4.56474 8.57143 4.88889 8.57143C5.21304 8.57143 5.52392 8.72194 5.75313 8.98985C5.98234 9.25776 6.11111 9.62112 6.11111 10C6.11111 10.3789 5.98234 10.7422 5.75313 11.0102C5.52392 11.2781 5.21304 11.4286 4.88889 11.4286ZM3.66667 14.2857C3.66667 13.9068 3.79544 13.5435 4.02465 13.2756C4.25386 13.0077 4.56474 12.8571 4.88889 12.8571C5.21304 12.8571 5.52392 13.0077 5.75313 13.2756C5.98234 13.5435 6.11111 13.9068 6.11111 14.2857C6.11111 14.6646 5.98234 15.028 5.75313 15.2959C5.52392 15.5638 5.21304 15.7143 4.88889 15.7143C4.56474 15.7143 4.25386 15.5638 4.02465 15.2959C3.79544 15.028 3.66667 14.6646 3.66667 14.2857Z" fill="#222F3E"/>
</svg>
