<svg width="25" height="25" viewBox="0 0 25 25" fill="none" xmlns="http://www.w3.org/2000/svg">
<path d="M11.0543 6.73925L7.67139 2.83587C7.2811 2.38554 6.56647 2.38845 6.11329 2.84223L3.33134 5.62787C2.50339 6.45692 2.2664 7.6882 2.74482 8.67518C5.6264 14.6199 10.3697 19.3695 16.3065 22.2549C17.2922 22.7339 18.5219 22.4966 19.3498 21.6676L22.1582 18.8554C22.6132 18.3999 22.614 17.681 22.1602 17.2914L18.2396 13.9264C17.8293 13.5742 17.1927 13.6204 16.7815 14.0322L15.4177 15.3978C15.266 15.5497 15.038 15.586 14.8646 15.486C12.6314 14.1984 10.7906 12.3552 9.50467 10.119C9.40481 9.94539 9.44113 9.71706 9.59277 9.56522L10.9524 8.20377C11.3654 7.79024 11.41 7.14965 11.0543 6.73925Z" stroke="#576574" stroke-width="2" stroke-linecap="round" stroke-linejoin="round"/>
</svg>
