<svg width="22" height="22" viewBox="0 0 22 22" fill="none" xmlns="http://www.w3.org/2000/svg">
<g clip-path="url(#clip0_393_2730)">
<path d="M13.2459 19.8806C18.0377 19.8806 22 15.9095 22 11.1176C22 6.33463 18.029 2.35468 13.2371 2.35468C8.80707 2.35468 5.09186 5.75218 4.55357 10.0322C4.783 10.0322 5.00362 10.0498 5.22425 10.0851C5.4978 10.1204 5.77139 10.1822 6.03609 10.2616C6.45087 6.65234 9.50424 3.85488 13.2371 3.85488C17.2699 3.85488 20.4998 7.09355 20.5086 11.1176C20.5086 12.9973 19.8115 14.6916 18.6642 15.9801C17.3317 14.8681 15.3374 14.1269 13.2371 14.1269C12.2487 14.1269 11.128 14.3387 10.0866 14.7093C10.1484 15.0446 10.1837 15.3888 10.1837 15.733C10.1837 16.889 9.8219 17.9744 9.21301 18.8834C10.422 19.5099 11.7986 19.8806 13.2459 19.8806ZM13.2371 12.609C14.9314 12.609 16.211 11.1441 16.211 9.29972C16.211 7.56129 14.905 6.05225 13.2371 6.05225C11.578 6.05225 10.2632 7.56129 10.2632 9.29972C10.2632 11.1441 11.5516 12.609 13.2371 12.609ZM4.48297 20.2159C6.91861 20.2159 8.96594 18.1862 8.96594 15.733C8.96594 13.2797 6.94505 11.25 4.48297 11.25C2.0297 11.25 0 13.2797 0 15.733C0 18.2039 2.0297 20.2159 4.48297 20.2159ZM4.49177 18.6451C4.18291 18.6451 3.90936 18.4333 3.90936 18.098V16.2713H2.22385C1.92378 16.2713 1.67667 16.0242 1.67667 15.733C1.67667 15.4329 1.92378 15.1858 2.22385 15.1858H3.90936V13.3591C3.90936 13.0326 4.18291 12.8208 4.49177 12.8208C4.79184 12.8208 5.06538 13.0326 5.06538 13.3591V15.1858H6.7509C7.05096 15.1858 7.28923 15.4329 7.28923 15.733C7.28923 16.0242 7.05096 16.2713 6.7509 16.2713H5.06538V18.098C5.06538 18.4333 4.79184 18.6451 4.49177 18.6451Z" fill="white"/>
</g>
<defs>
<clipPath id="clip0_393_2730">
<rect width="22" height="22" fill="white"/>
</clipPath>
</defs>
</svg>
