<svg width="24" height="25" viewBox="0 0 24 25" fill="none" xmlns="http://www.w3.org/2000/svg">
<path d="M10 3.01776C9.86193 3.01776 9.75 2.90583 9.75 2.76776C9.75 2.62969 9.86193 2.51776 10 2.51776H13.5355C13.6736 2.51776 13.7855 2.6297 13.7855 2.76776C13.7855 2.90582 13.6736 3.01776 13.5355 3.01776H10Z" fill="#576574" stroke="#576574"/>
<path d="M6.17677 4.32323L6.17677 4.32322C6.07914 4.22559 5.92085 4.22559 5.82323 4.32322L5.82322 4.32323L3.32322 6.82323C3.2256 6.92085 3.22559 7.07914 3.32322 7.17678C3.32322 7.17678 3.32322 7.17679 3.32323 7.17679M6.17677 4.32323L5.46967 3.96968C5.76256 3.67678 6.23744 3.67678 6.53033 3.96968C6.82322 4.26257 6.82322 4.73744 6.53033 5.03034L4.03033 7.53034C3.73744 7.82323 3.26256 7.82323 2.96967 7.53034L3.32323 7.17679M6.17677 4.32323C6.2744 4.42085 6.27441 4.57914 6.17677 4.67678L6.52862 5.02863L6.17677 4.67679M6.17677 4.32323L6.17677 4.67679M3.32323 7.17679C3.42086 7.27441 3.57915 7.27441 3.67677 7.17678L6.17677 4.67679M3.32323 7.17679L6.17677 4.67679" fill="#576574" stroke="#576574"/>
<path d="M12 6.25C7.99594 6.25 4.75 9.49593 4.75 13.5C4.75 17.5041 7.99594 20.75 12 20.75C16.0041 20.75 19.25 17.5041 19.25 13.5C19.25 13.0858 19.5858 12.75 20 12.75C20.4142 12.75 20.75 13.0858 20.75 13.5C20.75 18.3325 16.8325 22.25 12 22.25C7.16751 22.25 3.25 18.3325 3.25 13.5C3.25 8.6675 7.16751 4.75 12 4.75C12.4142 4.75 12.75 5.08578 12.75 5.5C12.75 5.91421 12.4142 6.25 12 6.25Z" fill="#576574"/>
<path d="M17.1882 8.86427C17.4204 8.56571 17.394 8.14095 17.1265 7.87349C16.8591 7.60603 16.4343 7.57959 16.1357 7.8118L12.9658 10.2773L10.8944 11.7569C10.4519 12.0729 10.1893 12.5832 10.1893 13.1269C10.1893 14.0568 10.9432 14.8107 11.873 14.8107C12.4168 14.8107 12.9271 14.5481 13.2431 14.1056L14.7227 12.0342L17.1882 8.86427Z" fill="#576574"/>
</svg>
