<svg width="24" height="25" viewBox="0 0 24 25" fill="none" xmlns="http://www.w3.org/2000/svg">
<g clip-path="url(#clip0_121_4118)">
<path d="M21.5 19.75H21H20.1434H19.7546L19.6588 19.3732C19.5227 18.8376 19.2119 18.3627 18.7757 18.0235C18.3395 17.6842 17.8026 17.5001 17.25 17.5001C16.6974 17.5001 16.1605 17.6842 15.7243 18.0235C15.2881 18.3627 14.9773 18.8376 14.8412 19.3732L14.7454 19.75H14.3566H9.64342H9.25463L9.15884 19.3732C9.02269 18.8376 8.71194 18.3627 8.2757 18.0235C7.83946 17.6842 7.30261 17.5001 6.75 17.5001C6.19739 17.5001 5.66054 17.6842 5.2243 18.0235C4.78806 18.3627 4.47731 18.8376 4.34116 19.3732L4.24537 19.75H3.85658H3H2.5V19.25V14.0807C2.5 14.0807 2.5 14.0806 2.5 14.0806C2.49983 13.5285 2.66595 12.9891 2.97671 12.5328C2.97672 12.5328 2.97673 12.5327 2.97673 12.5327L5.00973 9.54706C5.0098 9.54695 5.00987 9.54685 5.00994 9.54674C5.00995 9.54673 5.00996 9.54672 5.00996 9.54672C5.12453 9.37829 5.27853 9.24043 5.45857 9.14514C5.63869 9.0498 5.8394 8.99998 6.0432 9C6.04324 9 6.04328 9 6.04331 9H12.0393H12.0403V9.5C12.1495 9.49953 12.2575 9.52311 12.3567 9.56906C12.4558 9.61501 12.5436 9.6822 12.6138 9.76588L21.5 19.75ZM21.5 19.75V19.25V15.1836V14.8319L21.1691 14.713L15.6658 12.7355L21.5 19.75ZM21.8344 14.4208L21.8345 14.4208C21.8829 14.4382 21.9249 14.4701 21.9545 14.5123C21.9841 14.5544 22 14.6046 22 14.6561V14.6563V20C22 20.0663 21.9737 20.1299 21.9268 20.1768C21.8799 20.2237 21.8163 20.25 21.75 20.25H20.1434H19.7546L19.6588 20.6268C19.5227 21.1624 19.2119 21.6373 18.7757 21.9765C18.3395 22.3158 17.8026 22.4999 17.25 22.4999C16.6974 22.4999 16.1605 22.3158 15.7243 21.9765C15.2881 21.6373 14.9773 21.1624 14.8412 20.6268L14.7454 20.25H14.3566H9.64342H9.25463L9.15884 20.6268C9.02269 21.1624 8.71194 21.6373 8.2757 21.9765C7.83946 22.3158 7.30261 22.4999 6.75 22.4999C6.19739 22.4999 5.66054 22.3158 5.2243 21.9765C4.78806 21.6373 4.47731 21.1624 4.34116 20.6268L4.24537 20.25H3.85658H2.25C2.1837 20.25 2.12011 20.2237 2.07322 20.1768C2.02634 20.1299 2 20.0663 2 20L2 14.0806L2 14.0802C1.99957 13.4283 2.19572 12.7915 2.56283 12.2528L2.56298 12.2525L4.59653 9.26497L4.59658 9.26491C4.75702 9.02913 4.97269 8.83617 5.2248 8.70285C5.47691 8.56952 5.7578 8.49989 6.04299 8.5H6.0432L12.0403 8.50001L12.0413 8.5C12.3 8.49948 12.5556 8.55656 12.7895 8.66711C13.0224 8.77722 13.228 8.93761 13.3915 9.13673L15.813 12.1779L15.9014 12.289L16.0351 12.337L21.8344 14.4208ZM6.75 22H6.75067C7.28071 21.9993 7.78883 21.7884 8.16362 21.4136C8.53841 21.0388 8.74929 20.5307 8.75 20.0007V20C8.75 19.6044 8.6327 19.2178 8.41294 18.8889C8.19318 18.56 7.88082 18.3036 7.51537 18.1522C7.14991 18.0009 6.74778 17.9613 6.35982 18.0384C5.97186 18.1156 5.61549 18.3061 5.33579 18.5858C5.05608 18.8655 4.8656 19.2219 4.78843 19.6098C4.71126 19.9978 4.75087 20.3999 4.90224 20.7654C5.05362 21.1308 5.30996 21.4432 5.63886 21.6629C5.96776 21.8827 6.35444 22 6.75 22ZM17.25 22H17.2506C17.7807 21.9993 18.2889 21.7885 18.6637 21.4137C19.0385 21.0389 19.2493 20.5307 19.25 20.0006V20C19.25 19.6044 19.1327 19.2178 18.9129 18.8889C18.6932 18.56 18.3808 18.3036 18.0154 18.1522C17.6499 18.0009 17.2478 17.9613 16.8598 18.0384C16.4719 18.1156 16.1155 18.3061 15.8358 18.5858C15.5561 18.8655 15.3656 19.2219 15.2884 19.6098C15.2113 19.9978 15.2509 20.3999 15.4022 20.7654C15.5536 21.1308 15.81 21.4432 16.1389 21.6629C16.4678 21.8827 16.8544 22 17.25 22Z" fill="#576574" stroke="#576574"/>
<path d="M21.5 6.75V2.5H22V6.75H21.5Z" fill="#576574" stroke="#576574"/>
<path d="M19.5 5H18V7.25H19.5V5Z" fill="#576574"/>
<path d="M16.5 3.5H15V7.25H16.5V3.5Z" fill="#576574"/>
</g>
<defs>
<clipPath id="clip0_121_4118">
<rect width="24" height="24" fill="white" transform="translate(0 0.5)"/>
</clipPath>
</defs>
</svg>
